<?xml version="1.0" standalone="no"?><!DOCTYPE svg PUBLIC "-//W3C//DTD SVG 1.1//EN" "http://www.w3.org/Graphics/SVG/1.1/DTD/svg11.dtd"><svg t="1533390835913" class="icon" style="" viewBox="0 0 1024 1024" version="1.1" xmlns="http://www.w3.org/2000/svg" p-id="5502" xmlns:xlink="http://www.w3.org/1999/xlink" width="200" height="200"><defs><style type="text/css"></style></defs><path d="M507.2 193.6s-96-139.2-46.4-163.2c0 0 38.4-22.4 46.4 9.6 9.6 28.8 27.2 168 27.2 168l-20.8 6.4-6.4-20.8z" fill="#249E65" p-id="5503"></path><path d="M510.4 185.6s-60.8-113.6-36.8-128c0 0 19.2-14.4 25.6 9.6s25.6 131.2 25.6 131.2l-11.2 3.2-3.2-16z" fill="#D9E461" p-id="5504"></path><path d="M566.4 179.2s121.6-118.4 78.4-152c0 0-33.6-28.8-48 0s-59.2 161.6-59.2 161.6l19.2 9.6 9.6-19.2z" fill="#249E65" p-id="5505"></path><path d="M564.8 171.2s81.6-99.2 60.8-118.4c0 0-16-17.6-27.2 4.8-11.2 22.4-51.2 124.8-51.2 124.8l9.6 4.8 8-16z" fill="#D9E461" p-id="5506"></path><path d="M529.6 172.8S475.2 12.8 529.6 3.2c0 0 43.2-11.2 43.2 20.8s-20.8 169.6-20.8 169.6h-20.8v-20.8z" fill="#249E65" p-id="5507"></path><path d="M534.4 166.4s-27.2-124.8 0-134.4c0 0 22.4-8 22.4 16s-11.2 134.4-11.2 134.4h-11.2v-16z" fill="#D9E461" p-id="5508"></path><path d="M553.6 182.4c-14.4-1.6-28.8-3.2-41.6-4.8 225.6 83.2 168 384 128 457.6-32 60.8-145.6 281.6-249.6 385.6 4.8 1.6 8 1.6 12.8 1.6 118.4 0 300.8-329.6 344-404.8 43.2-73.6 107.2-392-193.6-435.2z" fill="#EA661C" p-id="5509"></path><path d="M660.8 640c12.8-83.2 75.2-377.6-150.4-462.4C251.2 163.2 241.6 384 241.6 384c-11.2 92.8 19.2 606.4 148.8 636.8 131.2 14.4 259.2-305.6 270.4-380.8z" fill="#F99351" p-id="5510"></path><path d="M316.8 331.2a75.2 75.2 0 1 0 150.4 0 75.2 75.2 0 1 0-150.4 0Z" fill="#EDEDED" p-id="5511"></path><path d="M349.017958 779.033357a43.201728 160.0064 3.92 1 0 21.877209-319.264123 43.201728 160.0064 3.92 1 0-21.877209 319.264123Z" fill="#EDEDED" p-id="5512"></path></svg>