<?xml version="1.0" standalone="no"?><!DOCTYPE svg PUBLIC "-//W3C//DTD SVG 1.1//EN" "http://www.w3.org/Graphics/SVG/1.1/DTD/svg11.dtd"><svg t="1533390765421" class="icon" style="" viewBox="0 0 1024 1024" version="1.1" xmlns="http://www.w3.org/2000/svg" p-id="4775" xmlns:xlink="http://www.w3.org/1999/xlink" width="200" height="200"><defs><style type="text/css"></style></defs><path d="M761.4 342.1c-20.3 0-39.6 4.2-57.1 11.7-11.3-41.1-40.2-74.9-78.1-92.8v2.2c0 5.5-4.4 9.9-10 9.9h-0.1c-5.5 0-10-4.5-10-10v-9.7c-13.2-4-27.2-6.1-41.6-6.1-26.3 0-51 7-72.3 19.3-21.7-52.7-73.5-89.8-134-89.8-80 0-144.8 64.9-144.8 144.8 0 28 7.9 54.1 21.7 76.3-19.2 24.6-30.6 55.5-30.6 89 0 10.4 1.1 20.6 3.2 30.4-31.7 26.6-51.8 66.4-51.8 111 0 29.4 8.8 56.8 23.9 79.7-18.8 24.4-29.9 55-29.9 88.2 0 80 64.8 144.8 144.8 144.8 61.1 0 113.3-37.8 134.6-91.3 19.5 9.8 41.5 15.3 64.9 15.3 80 0 144.8-64.8 144.8-144.8 0-10.5-1.1-20.7-3.2-30.6 29.4-15.2 52.9-40.1 66.2-70.5 18.1 8.1 38.2 12.6 59.3 12.6 80 0 144.8-64.8 144.8-144.8s-64.7-144.8-144.7-144.8z m-259.8-42.9c-0.7-4.4-1.6-8.7-2.7-13 19-12 41.5-18.9 65.7-18.9 5.5 0 11 0.4 16.3 1.1 2.7 0.3 5.3 0.8 7.9 1.3s5.2 1.1 7.7 1.8c0.9 0.2 1.7 0.5 2.5 0.7 4.2 1.2 8.3 2.6 12.4 4.3 1.6 0.7 3.2 1.3 4.8 2.1 3.1 1.4 6.2 3 9.2 4.7 2.3 1.3 4.5 2.6 6.6 4 9.4 6 17.9 13.3 25.3 21.6 0.6 0.6 1.1 1.3 1.7 1.9 2.8 3.2 5.4 6.6 7.9 10.1l1.5 2.1c2.4 3.6 4.6 7.3 6.6 11.1 2.4 4.6 4.6 9.3 6.4 14.2 0.6 1.6 1.2 3.3 1.7 4.9 1.1 3.3 2.1 6.7 2.9 10.1l1.2 5.4c1 5.4 1.7 10.9 2 16.5 0.1 2.3 0.2 4.7 0.2 7 0 3-0.1 6-0.3 8.9-0.1 1.5-0.2 2.9-0.4 4.4-0.6 5.8-1.6 11.5-3 17.1-0.3 1.4-0.7 2.8-1.1 4.1-1.6 5.5-3.5 10.8-5.8 16-0.6 1.3-1.2 2.6-1.8 3.8-1.8 3.8-3.9 7.5-6.1 11.1-0.9 1.5-1.8 2.9-2.8 4.3-2.8 4.2-5.9 8.3-9.2 12.1-0.8 0.9-1.7 1.9-2.5 2.8-1.3 1.4-2.6 2.7-3.9 4s-2.7 2.6-4.1 3.9c-1.9 1.7-3.8 3.3-5.7 4.9-1.9 1.6-4 3.1-6 4.5-6 4.3-12.4 8-19.1 11.2-16.1 7.6-34.1 11.8-53.1 11.8-21.3 0-41.3-5.3-58.8-14.8-4-2.2-7.9-4.6-11.7-7.1-6.8-4.7-13.1-10-18.9-15.9l-1.2-1.2-11.7-14.4c-2.3-3.2-4.3-6.5-6.3-9.9-0.6-1.1-1.3-2.3-1.9-3.5-1.8-3.5-3.5-7.1-5-10.7-0.5-1.2-1-2.5-1.4-3.7 3.8-3 7.4-6.1 10.9-9.5 1.2-1.2 2.5-2.4 3.7-3.6 0 0 0.1 0 0.1-0.1 3.7-3.8 7.1-7.7 10.3-11.9 19.2-24.6 30.6-55.5 30.6-89 0.1-7.8-0.5-15.3-1.6-22.6z m-267.5 34.7c-0.4-4-0.6-8.1-0.6-12.3 0-4.3 0.2-8.5 0.6-12.7 0.5-5.2 1.4-10.4 2.6-15.4 0.9-4 2.1-8 3.4-11.8 2.9-8.7 6.8-17 11.5-24.7 0.5-0.9 1.1-1.7 1.6-2.6 22.2-34.6 61-57.6 105.1-57.6 40.1 0 75.9 19.1 98.8 48.6 7.6 9.8 13.8 20.9 18.2 32.7 0.3 0.8 0.6 1.7 0.9 2.6 1.2 3.4 2.3 6.9 3.2 10.5 0.3 1.1 0.5 2.1 0.8 3.2 0.4 1.7 0.7 3.3 1 5 1.3 7.2 2 14.7 2 22.3 0 26.8-8.5 51.7-22.9 72-2 2.8-4.1 5.5-6.3 8.1-2.2 2.6-4.4 5.1-6.8 7.5-1.7 1.8-3.5 3.5-5.4 5.1-5.5 4.9-11.3 9.3-17.6 13.3-7.2 4.5-14.8 8.2-22.9 11.2-13.4 4.9-27.9 7.6-42.9 7.6-39.5 0-74.8-18.5-97.7-47.2-3.2-4-6.1-8.2-8.8-12.5-0.9-1.4-1.8-2.9-2.6-4.4l-2.7-5.1c-0.9-1.7-1.7-3.5-2.5-5.3-1.1-2.4-2-4.8-2.9-7.2-0.5-1.2-0.9-2.5-1.3-3.7-0.8-2.5-1.6-5-2.2-7.5-1-3.8-1.8-7.7-2.5-11.7-0.5-2.7-0.8-5.3-1.1-8z m1.7 101.3c2-4.3 4.2-8.5 6.6-12.5 1.6-2.7 3.3-5.3 5.1-7.8 3.3 3.9 6.9 7.7 10.6 11.3 5.6 5.3 11.6 10.3 18 14.7 1.1 0.7 2.1 1.5 3.2 2.2 22.7 14.9 49.9 23.5 79 23.5 26.3 0 51-7 72.3-19.3 1.2 3 2.5 5.8 3.9 8.7 4.2 8.5 9.2 16.5 14.9 24-4.5 6.6-8.4 13.6-11.8 21-1.3 2.9-2.6 5.9-3.7 9-0.6 1.5-1.1 3.1-1.6 4.6-1 3.1-2 6.2-2.8 9.4-2.5 9.5-4.1 19.5-4.6 29.7 0 1.2-0.1 2.4-0.1 3.7 0 1.2-0.1 2.5-0.1 3.7 0 5.1 0.3 10.2 0.8 15.2 0.3 3 0.7 6 1.2 8.9-2.3 1.8-4.6 3.5-7 5.1-1.3 0.9-2.5 1.7-3.8 2.5-19.2 12.2-42 19.2-66.4 19.2-29.5 0-56.6-10.3-78-27.4-18.9-15.1-33.3-35.6-40.9-59.2-0.5-1.7-1.1-3.4-1.5-5.1-1-3.4-1.8-6.9-2.4-10.4-0.3-1.8-0.6-3.5-0.9-5.3-0.8-5.7-1.2-11.5-1.2-17.5 0-18.6 4-36.2 11.2-51.9z m-58.1 214.6c-1-5.6-1.6-11.3-1.8-17.1-0.1-1.5-0.1-2.9-0.1-4.4 0-11 1.4-21.7 4.1-31.8 1.9-7.1 4.4-14 7.4-20.5 0.4-0.9 0.9-1.9 1.3-2.8 0.9-1.8 1.9-3.7 2.9-5.5l1.5-2.7c5.7-9.7 12.8-18.6 20.8-26.4 7.1 18.7 18.1 35.6 31.9 49.6l0.1 0.1c2.4 2.4 4.8 4.8 7.4 7 0.3 0.3 0.6 0.6 1 0.8 2.2 1.9 4.5 3.8 6.8 5.6 2.2 1.7 4.4 3.3 6.7 4.9 1.9 1.3 3.9 2.6 5.8 3.8 1.2 0.8 2.5 1.5 3.8 2.2 1.7 1 3.4 1.9 5.2 2.8 1.6 0.8 3.2 1.6 4.9 2.4 18.8 8.9 39.7 13.9 61.9 13.9 11.4 0 22.5-1.3 33.2-3.8 15-3.5 29-9.3 41.8-17.1 0.3 1.8 0.5 3.6 0.6 5.5 0.4 4 0.6 8 0.6 12 0 26.6-8.4 51.3-22.6 71.6-3.9 5.6-8.3 10.8-13 15.6-6.1 6.2-12.8 11.8-20 16.6-6 4-12.3 7.5-18.9 10.4-15.4 6.8-32.4 10.6-50.3 10.6-38.1 0-72.3-17.2-95.3-44.2-4.4-5.2-8.3-10.7-11.8-16.5-1.8-2.9-3.4-6-4.9-9.1-0.6-1.2-1.1-2.3-1.7-3.5-0.6-1.4-1.3-2.9-1.9-4.3-0.7-1.8-1.4-3.6-2.1-5.5-1-3-2-6-2.8-9-0.6-2-1.1-4.1-1.5-6.2-0.3-1.5-0.7-3.2-1-5z m234.2 189.5C394.3 887 348.4 921 294.7 921c-68.8 0-124.8-56-124.8-124.8 0-26.6 8.4-51.3 22.6-71.6 26.5 29.8 65.2 48.6 108.3 48.6 19.4 0 37.9-3.8 54.9-10.8 3.3 10.9 7.8 21.2 13.5 30.8 2 3.5 4.2 6.9 6.5 10.2 9.9 14 22.1 26.2 36.2 35.9z m197.4-70.6c-0.8 1.9-1.6 3.7-2.5 5.5-3.5 7.3-7.7 14.2-12.5 20.6-1.2 1.6-2.4 3.2-3.7 4.7-1.3 1.5-2.6 3.1-3.9 4.5-0.7 0.7-1.4 1.5-2 2.2-1.4 1.4-2.8 2.9-4.2 4.2-0.7 0.7-1.5 1.4-2.2 2-1.5 1.3-3 2.7-4.5 3.9-1.5 1.3-3.1 2.5-4.7 3.7-1.6 1.2-3.2 2.4-4.9 3.5-6.6 4.5-13.7 8.4-21.2 11.5-1.9 0.8-3.8 1.5-5.7 2.2-7.6 2.8-15.6 4.9-23.9 6.1-2.1 0.3-4.1 0.6-6.2 0.8-4.2 0.4-8.4 0.6-12.7 0.6-21.2 0-41.2-5.3-58.7-14.7-6.3-3.4-12.3-7.3-18-11.7-15.7-12.2-28.3-28.1-36.7-46.3-1.4-3-2.7-6.1-3.9-9.3-1.2-3.2-2.2-6.4-3.1-9.6 10.2-6 19.6-13.1 28-21.3 5-4.8 9.6-10.1 13.9-15.6 3.2-4.2 6.3-8.7 9-13.2 0.9-1.5 1.8-3.1 2.7-4.6 1.7-3.1 3.4-6.3 4.9-9.6 7.5-16.3 12.2-34.3 13.1-53.3 1.6 2.6 3.3 5.2 5 7.7 2.6 3.8 5.4 7.4 8.4 10.9 2 2.3 4 4.6 6.1 6.8 3.2 3.3 6.5 6.4 9.9 9.4 2.3 2 4.7 3.9 7.1 5.8 1.2 0.9 2.4 1.8 3.7 2.7 2.5 1.8 5 3.5 7.6 5.1 2.6 1.6 5.3 3.1 8 4.6 6.8 3.6 13.9 6.7 21.2 9.3 2.9 1 5.9 1.9 9 2.8 12.1 3.3 24.8 5 38 5 6.3 0 12.4-0.4 18.5-1.2l6-0.9c2-0.3 4-0.7 5.9-1.1 5.9-1.3 11.6-2.9 17.2-4.8 1.3 7.3 2 14.8 2 22.5-0.2 17.3-3.7 33.7-10 48.6z m20.8-98.8c-2.9 1.6-5.9 3.2-8.9 4.6-3.1 1.4-6.2 2.7-9.4 3.8-1.7 0.6-3.3 1.2-5 1.7l-5.1 1.5c-2.6 0.7-5.2 1.3-7.8 1.8-1.8 0.3-3.5 0.7-5.3 0.9-6.2 1-12.6 1.5-19.1 1.5-54.1 0-100.3-34.6-117.6-82.9-1.2-3.4-2.3-6.8-3.2-10.3-0.8-3-1.5-6-2-9.1-0.3-1.5-0.5-2.9-0.7-4.4-0.4-2.5-0.7-5-0.9-7.5-0.1-1.3-0.2-2.7-0.3-4-0.1-2.2-0.2-4.4-0.2-6.6 0-24 6.8-46.3 18.5-65.4 2.4 2.3 4.9 4.6 7.4 6.8 0.8 0.7 1.7 1.4 2.5 2.1 2.9 2.3 5.8 4.5 8.8 6.6 3 2.1 6.1 4.1 9.3 6 17.5 10.3 37.3 17.1 58.5 19.2 4.9 0.5 9.9 0.8 14.9 0.8 20.3 0 39.6-4.2 57.1-11.7 9.7 35.3 32.4 65.3 62.7 84.3-10.9 25.6-30.1 46.9-54.2 60.3z m131.3-58.1c-6.8 0-13.5-0.6-20.1-1.6-2.7-0.4-5.3-1-7.9-1.6-2.7-0.6-5.4-1.3-8-2.1-5.7-1.7-11.2-3.8-16.5-6.3-2.4-1.1-4.8-2.4-7.2-3.6-1.3-0.7-2.6-1.4-3.8-2.2-2.4-1.4-4.7-2.9-7-4.5-25.1-17.3-43.7-43.5-51-74 11.9-7.2 22.6-16.1 31.9-26.4 4.7-5.1 9-10.6 12.9-16.4 15.6-23.1 24.7-51 24.7-81 0-6.2-0.4-12.2-1.1-18.2 16.1-7.6 34.1-11.9 53.1-11.9 18.8 0 36.6 4.2 52.6 11.6 1.4 0.7 2.8 1.3 4.2 2 6 3.1 11.8 6.7 17.2 10.7l1.2 0.9c1.3 0.9 2.5 1.9 3.7 2.9 0.3 0.2 0.6 0.5 0.9 0.7 27.5 22.9 45.1 57.4 45.1 95.9-0.1 68.9-56.1 125.1-124.9 125.1z" fill="#8C57C9" p-id="4776"></path><path d="M462.4 422.6c-0.1 0.1-0.1 0.1 0 0-1.3 1.3-2.5 2.5-3.8 3.7-3.5 3.4-7.1 6.5-10.9 9.5 0.5 1.2 0.9 2.5 1.4 3.7 1.5 3.7 3.2 7.2 5 10.7 0.6 1.2 1.2 2.3 1.9 3.5 1.9 3.4 4 6.7 6.3 9.9L474 478l1.2 1.2c5.8 5.9 12.1 11.2 18.9 15.9 3.8 2.6 7.7 5 11.7 7.1 17.5 9.4 37.5 14.8 58.8 14.8 19 0 37-4.2 53.1-11.8 6.7-3.2 13.1-6.9 19.1-11.2l6-4.5c2-1.5 3.8-3.2 5.7-4.9 1.4-1.3 2.7-2.6 4.1-3.9 1.3-1.3 2.6-2.7 3.9-4 0.8-0.9 1.7-1.8 2.5-2.8 3.3-3.8 6.4-7.9 9.2-12.1 1-1.4 1.9-2.8 2.8-4.3 2.2-3.6 4.2-7.3 6.1-11.1 0.6-1.3 1.2-2.5 1.8-3.8 2.3-5.2 4.2-10.5 5.8-16 0.4-1.4 0.8-2.8 1.1-4.1 1.4-5.6 2.4-11.3 3-17.1 0.2-1.5 0.3-2.9 0.4-4.4 0.2-2.9 0.3-5.9 0.3-8.9 0-2.3-0.1-4.7-0.2-7-0.3-5.6-1-11.1-2-16.5-0.3-1.8-0.7-3.6-1.2-5.4-0.8-3.4-1.8-6.8-2.9-10.1-0.5-1.7-1.1-3.3-1.7-4.9-1.8-4.9-4-9.6-6.4-14.2-2-3.8-4.2-7.5-6.6-11.1l-1.5-2.1c-2.5-3.5-5.1-6.9-7.9-10.1-0.6-0.6-1.1-1.3-1.7-1.9-7.4-8.3-16-15.5-25.3-21.6-2.2-1.4-4.4-2.7-6.6-4-3-1.7-6.1-3.2-9.2-4.7l-4.8-2.1c-4-1.6-8.1-3.1-12.4-4.3-0.8-0.2-1.7-0.5-2.5-0.7-2.6-0.7-5.1-1.3-7.7-1.8s-5.3-0.9-7.9-1.3c-5.3-0.7-10.8-1.1-16.3-1.1-24.2 0-46.7 6.9-65.7 18.9 1.1 4.2 2 8.6 2.7 13 1.1 7.3 1.7 14.9 1.7 22.5 0 33.5-11.4 64.4-30.6 89-3.3 4.3-6.8 8.3-10.4 12z" fill="#B471F9" p-id="4777"></path><path d="M237.6 353.5c0.7 2.5 1.4 5.1 2.2 7.5 0.4 1.2 0.8 2.5 1.3 3.7 0.9 2.4 1.9 4.9 2.9 7.2 0.8 1.8 1.6 3.5 2.5 5.3 0.9 1.7 1.8 3.5 2.7 5.1 0.9 1.5 1.7 2.9 2.6 4.4 2.7 4.3 5.6 8.5 8.8 12.5 22.9 28.7 58.2 47.2 97.7 47.2 15.1 0 29.5-2.7 42.9-7.6 8-3 15.7-6.7 22.9-11.2 6.3-4 12.1-8.4 17.6-13.3 1.9-1.6 3.7-3.3 5.4-5.1 2.4-2.4 4.7-4.9 6.9-7.5 2.2-2.6 4.3-5.3 6.3-8.1 14.4-20.3 22.9-45.2 22.9-72 0-7.6-0.7-15.1-2-22.3-0.3-1.7-0.7-3.4-1-5-0.2-1.1-0.5-2.1-0.8-3.2-0.9-3.6-1.9-7.1-3.2-10.5-0.3-0.9-0.6-1.7-0.9-2.6-4.4-11.8-10.6-22.9-18.2-32.7-22.9-29.5-58.7-48.6-98.8-48.6-44.1 0-82.9 23-105.1 57.6-0.5 0.8-1.1 1.7-1.6 2.6-4.7 7.7-8.6 16-11.5 24.7-1.3 3.9-2.4 7.8-3.4 11.8-1.2 5-2 10.2-2.6 15.4-0.4 4.2-0.6 8.4-0.6 12.7 0 4.1 0.2 8.2 0.6 12.3 0.3 2.7 0.6 5.4 1 8 0.7 4 1.5 7.9 2.5 11.7z m108-89.8c-10 7.4-17.9 18-22 30.7-1.8 5.7-2.8 11.5-2.9 17.2-0.2 6.6-6.7 11.2-13 9.2-4.2-1.4-7.1-5.4-7-9.8 0.2-7.5 1.5-15.1 3.9-22.6 5.4-16.9 15.8-30.8 29-40.6 2.6-1.9 6-2.5 9.1-1.5 7.7 2.3 9.4 12.5 2.9 17.4z" fill="#B471F9" p-id="4778"></path><path d="M225.8 504.4c0.3 1.8 0.5 3.6 0.9 5.3 0.6 3.5 1.5 7 2.4 10.4l1.5 5.1c7.6 23.5 22 44 40.9 59.2 21.4 17.2 48.5 27.4 78 27.4 24.4 0 47.2-7 66.4-19.2 1.3-0.8 2.5-1.6 3.8-2.5 2.4-1.6 4.7-3.3 7-5.1-0.5-2.9-0.9-5.9-1.2-8.9-0.5-5-0.8-10.1-0.8-15.2 0-1.3 0-2.5 0.1-3.7 0-1.2 0.1-2.5 0.1-3.7 0.5-10.2 2-20.1 4.6-29.7 0.8-3.2 1.8-6.3 2.8-9.4 0.5-1.5 1.1-3.1 1.6-4.6 1.1-3 2.4-6 3.7-9 3.3-7.3 7.3-14.4 11.8-21-5.7-7.5-10.7-15.5-14.9-24-1.4-2.8-2.7-5.7-3.9-8.7-21.3 12.3-46 19.3-72.3 19.3-29.1 0-56.3-8.7-79-23.5-1.1-0.7-2.2-1.4-3.2-2.2-6.4-4.4-12.4-9.3-18-14.7-3.7-3.6-7.3-7.3-10.6-11.3-1.8 2.5-3.5 5.1-5.1 7.8-2.4 4-4.6 8.2-6.6 12.5-7.2 15.8-11.2 33.3-11.2 51.7 0 6.2 0.4 12 1.2 17.7z" fill="#B471F9" p-id="4779"></path><path d="M183.1 670.1c0.7 1.8 1.4 3.7 2.1 5.5 0.6 1.5 1.2 2.9 1.9 4.3 0.5 1.2 1.1 2.4 1.7 3.5 1.5 3.1 3.1 6.1 4.9 9.1 3.5 5.8 7.4 11.3 11.8 16.5 23 27 57.2 44.2 95.3 44.2 17.9 0 34.9-3.8 50.3-10.6 6.6-2.9 12.9-6.4 18.9-10.4 7.2-4.8 13.9-10.4 20-16.6 4.7-4.8 9.1-10 13-15.6 14.2-20.3 22.6-45 22.6-71.6 0-4-0.2-8-0.6-12-0.1-1.9-0.3-3.7-0.6-5.5-12.8 7.8-26.8 13.6-41.8 17.1-10.7 2.5-21.8 3.8-33.2 3.8-22.1 0-43.1-5-61.9-13.9-1.6-0.8-3.3-1.6-4.9-2.4-1.7-0.9-3.5-1.9-5.2-2.8-1.3-0.7-2.5-1.5-3.8-2.2-2-1.2-3.9-2.5-5.8-3.8-2.3-1.6-4.5-3.2-6.7-4.9-2.3-1.8-4.6-3.6-6.8-5.6-0.3-0.3-0.6-0.6-1-0.8-2.5-2.3-5-4.6-7.4-7l-0.1-0.1c-13.8-14.1-24.7-30.9-31.9-49.6-8.1 7.8-15.1 16.7-20.8 26.4l-1.5 2.7c-1 1.8-2 3.6-2.9 5.5-0.5 0.9-0.9 1.9-1.3 2.8-3 6.6-5.5 13.4-7.4 20.5-2.7 10.2-4.1 20.8-4.1 31.8 0 1.5 0 2.9 0.1 4.4 0.2 5.8 0.8 11.5 1.8 17.1 0.3 1.7 0.6 3.4 1 5.1 0.5 2.1 1 4.1 1.5 6.2 0.8 3 1.7 6 2.8 8.9z" fill="#B471F9" p-id="4780"></path><path d="M375.7 803.4c-2.3-3.3-4.5-6.7-6.5-10.2-5.6-9.6-10.2-19.9-13.5-30.8-17 7-35.5 10.8-54.9 10.8-43.1 0-81.8-18.8-108.3-48.6-14.2 20.3-22.6 45-22.6 71.6 0 68.8 56 124.8 124.8 124.8 53.7 0 99.6-34 117.2-81.7-14.1-9.7-26.3-21.9-36.2-35.9zM617.1 697.7c-5.6 1.9-11.3 3.6-17.2 4.8-2 0.4-3.9 0.8-5.9 1.1l-6 0.9c-6 0.8-12.2 1.2-18.5 1.2-13.1 0-25.9-1.8-38-5-3-0.8-6-1.7-9-2.8-7.4-2.5-14.5-5.6-21.2-9.3-2.7-1.5-5.4-3-8-4.6-2.6-1.6-5.1-3.3-7.6-5.1-1.2-0.9-2.5-1.8-3.7-2.7-2.4-1.8-4.8-3.8-7.1-5.8-3.5-3-6.8-6.1-9.9-9.4-2.1-2.2-4.1-4.5-6.1-6.8-3-3.5-5.7-7.1-8.4-10.9-1.7-2.5-3.4-5.1-5-7.7-0.9 19-5.5 37-13.1 53.3-1.5 3.3-3.1 6.5-4.9 9.6-0.9 1.6-1.8 3.1-2.7 4.6-2.8 4.6-5.8 9-9 13.2-4.3 5.5-8.9 10.8-13.9 15.6-8.4 8.2-17.8 15.3-28 21.3 0.9 3.3 2 6.5 3.1 9.6 1.2 3.2 2.4 6.2 3.9 9.3 8.4 18.2 21.1 34.1 36.7 46.3 5.7 4.4 11.7 8.3 18 11.7 17.5 9.4 37.5 14.7 58.7 14.7 4.3 0 8.5-0.2 12.7-0.6 2.1-0.2 4.2-0.5 6.2-0.8 8.3-1.3 16.2-3.3 23.9-6.1 1.9-0.7 3.8-1.4 5.7-2.2 7.5-3.2 14.6-7 21.2-11.5 1.7-1.1 3.3-2.3 4.9-3.5 1.6-1.2 3.2-2.4 4.7-3.7s3.1-2.6 4.5-3.9c0.7-0.7 1.5-1.4 2.2-2 1.4-1.4 2.9-2.8 4.2-4.2 0.7-0.7 1.4-1.5 2-2.2 1.3-1.5 2.7-3 3.9-4.5 1.3-1.5 2.5-3.1 3.7-4.7 4.8-6.4 9-13.3 12.5-20.6 0.9-1.8 1.7-3.7 2.5-5.5 6.3-14.9 9.8-31.3 9.8-48.5 0.2-7.8-0.5-15.3-1.8-22.6z" fill="#B471F9" p-id="4781"></path><path d="M621.5 525.3c-17.5 7.5-36.8 11.7-57.1 11.7-5 0-10-0.3-14.9-0.8-21.2-2.2-41-8.9-58.5-19.2-3.2-1.9-6.3-3.8-9.3-6-3-2.1-5.9-4.3-8.8-6.6-0.8-0.7-1.7-1.4-2.5-2.1-2.5-2.2-5-4.4-7.4-6.8-11.7 19.1-18.5 41.4-18.5 65.4 0 2.2 0.1 4.4 0.2 6.6 0.1 1.3 0.2 2.7 0.3 4 0.2 2.5 0.5 5 0.9 7.5 0.2 1.5 0.5 2.9 0.7 4.4 0.5 3.1 1.2 6.1 2 9.1 0.9 3.5 2 6.9 3.2 10.3 17.3 48.3 63.5 82.9 117.6 82.9 6.5 0 12.9-0.5 19.1-1.5 1.8-0.3 3.6-0.6 5.3-0.9 2.6-0.5 5.2-1.1 7.8-1.8l5.1-1.5c1.7-0.5 3.4-1.1 5-1.7 3.2-1.2 6.3-2.4 9.4-3.8 3-1.4 6-2.9 8.9-4.6 24.1-13.4 43.3-34.7 54.1-60.3-30.2-19-52.9-49-62.6-84.3zM886.2 486.8c0-38.5-17.5-73-45.1-95.9-0.3-0.2-0.6-0.5-0.9-0.7-1.2-1-2.5-2-3.7-2.9l-1.2-0.9c-5.4-4-11.2-7.6-17.2-10.7-1.4-0.7-2.8-1.4-4.2-2-16-7.5-33.8-11.6-52.6-11.6-19 0-37 4.3-53.1 11.9 0.7 6 1.1 12 1.1 18.2 0 30-9.1 57.9-24.7 81-3.9 5.8-8.2 11.3-12.9 16.4-9.3 10.3-20 19.2-31.9 26.4 7.3 30.5 25.9 56.7 51 74 2.3 1.6 4.6 3 7 4.5 1.3 0.8 2.5 1.5 3.8 2.2 2.3 1.3 4.7 2.5 7.2 3.6 5.3 2.5 10.8 4.6 16.5 6.3 2.6 0.8 5.3 1.5 8 2.1 2.6 0.6 5.3 1.1 7.9 1.6 6.6 1.1 13.3 1.6 20.1 1.6 68.9-0.1 124.9-56.3 124.9-125.1z" fill="#B471F9" p-id="4782"></path><path d="M657.2 122.5c-0.9 1.4-1.7 2.7-2.6 4.1-0.1 0.2-0.3 0.4-0.4 0.6s-0.1 0.3-0.2 0.4c-17.2 29.1-27.8 64.9-27.8 95.6v10.1c9.2 8.8 22.8 16.4 39.5 21.9 24.9 8.3 55.2 11.8 87.7 10.1 33.6-1.7 69.4-10.5 100.9-24.6-0.6-1-1.3-2-2-3.1-24.6-38.1-54.5-75-81.9-101.1-32.7-31.2-61.5-47.7-83.9-48-3.1 2.6-6.1 5.4-9 8.3-7.4 7.4-14.3 16.1-20.3 25.7z m27.6-13.8H686.5c4.2 0 11.4 1.2 21.7 6.2 0.7 0.4 1.5 0.7 2.3 1.1 1.5 0.8 3.2 1.7 4.8 2.6 10.9 6.3 24.6 16.3 41.3 32.4 2.8 2.7 5.6 5.4 8.4 8.3 11.3 11.5 22.8 24.6 34.1 38.8 8.5 10.6 16.8 21.7 24.8 33.1-23.3 8-48 12.9-71.5 14.1-11.3 0.6-22.2 0.5-32.7-0.2-5.2-0.4-10.4-0.9-15.3-1.6-3.3-0.5-6.6-1-9.8-1.6-3.2-0.6-6.3-1.3-9.4-2-4.6-1.1-9-2.3-13.2-3.8-6.6-2.2-12.7-4.8-18-7.6-1.8-0.9-3.4-1.9-5-2.9s-3.1-2-4.4-3c-0.7-0.5-1.4-1-2-1.6-1.3-1-2.4-2.1-3.5-3.2-1-1.1-2-2.1-2.8-3.2-0.4-0.5-0.8-1.1-1.1-1.6-3.9-6.2-4.8-14.2-3.7-22.8 0.3-2.2 0.7-4.4 1.1-6.6 0.2-0.7 0.3-1.5 0.5-2.2 0.6-2.2 1.2-4.5 1.9-6.8 2.2-6.8 5.1-13.6 8.2-20l2.1-4.2c0.7-1.4 1.4-2.7 2.1-4.1 1.6-3 3.2-5.8 4.8-8.4 1.2-2 2.4-3.9 3.6-5.7 0.8-1.2 1.6-2.3 2.4-3.5 0.4-0.6 0.8-1.1 1.2-1.6 1.2-1.6 2.4-3.1 3.6-4.5l2.4-2.7c2-2.1 3.9-3.9 5.9-5.5l1.2-0.9c1.2-0.9 2.3-1.6 3.4-2.2 1.1-0.6 2.3-1.2 3.4-1.6 1.9-0.5 3.7-0.9 5.5-1z" fill="#4DBC56" p-id="4783"></path><path d="M672.6 113.7l-1.2 0.9c-1.9 1.5-3.9 3.4-5.9 5.5-0.8 0.8-1.6 1.7-2.4 2.7-1.2 1.4-2.4 2.9-3.6 4.5-0.4 0.5-0.8 1.1-1.2 1.6-0.8 1.1-1.6 2.3-2.4 3.5-1.2 1.8-2.4 3.7-3.6 5.7-1.6 2.6-3.2 5.5-4.8 8.4-0.7 1.3-1.4 2.7-2.1 4.1l-2.1 4.2c-3.1 6.4-6 13.2-8.2 20-0.7 2.3-1.4 4.5-1.9 6.8-0.2 0.7-0.4 1.5-0.5 2.2-0.5 2.2-0.9 4.4-1.1 6.6-1.1 8.6-0.2 16.6 3.7 22.8 0.3 0.5 0.7 1.1 1.1 1.6 0.8 1.1 1.7 2.1 2.8 3.2 1 1.1 2.2 2.1 3.5 3.2 0.6 0.5 1.3 1 2 1.6 1.4 1 2.9 2 4.4 3 1.6 1 3.3 2 5 2.9 5.3 2.8 11.4 5.4 18 7.6 4.2 1.4 8.7 2.7 13.2 3.8 3.1 0.7 6.2 1.4 9.4 2 3.2 0.6 6.5 1.1 9.8 1.6 5 0.7 10.1 1.2 15.3 1.6 10.5 0.7 21.4 0.8 32.7 0.2 23.4-1.4 48.1-6.3 71.4-14.3-8-11.4-16.3-22.5-24.8-33.1-11.3-14.1-22.9-27.3-34.1-38.8-2.8-2.9-5.6-5.6-8.4-8.3-16.7-16-30.4-26.1-41.3-32.4-1.7-1-3.3-1.8-4.8-2.6-0.8-0.4-1.5-0.8-2.3-1.1-10.3-5-17.5-6.1-21.7-6.2H684.8c-1.8 0.1-3.6 0.5-5.4 1.2-1.1 0.4-2.2 0.9-3.4 1.6-1.2 0.7-2.3 1.3-3.4 2.2z" fill="#7FE283" p-id="4784"></path><path d="M626.2 263.2s0-0.1 0 0v-40.1c0-30.7 10.6-66.5 27.8-95.5 0.1-0.1 0.1-0.2 0.2-0.4s0.3-0.4 0.4-0.6c0.8-1.4 1.7-2.8 2.6-4.1 6.1-9.6 12.9-18.2 20.3-25.7 2.9-2.9 5.9-5.7 9-8.3 9.9-8.5 20.6-15.8 32.1-21.6 3.4-1.7 5.5-5.1 5.5-8.9 0-7.4-7.9-12.3-14.5-8.9-58.9 30.1-103.4 103.7-103.4 174.1v39.9c0 5.5 4.5 10 10 10 5.6 0 10-4.5 10-9.9z" fill="#8659C6" p-id="4785"></path><path d="M342.6 246.1c-3.1-1-6.5-0.4-9.1 1.5-13.2 9.8-23.6 23.8-29 40.6-2.4 7.5-3.7 15.1-3.9 22.6-0.1 4.4 2.7 8.4 7 9.8 6.3 2 12.9-2.5 13-9.2 0.1-5.7 1.1-11.5 2.9-17.2 4.1-12.8 12-23.3 22-30.7 6.6-4.7 4.9-14.9-2.9-17.4z" fill="#FFFFFF" p-id="4786"></path></svg>