<?xml version="1.0" standalone="no"?><!DOCTYPE svg PUBLIC "-//W3C//DTD SVG 1.1//EN" "http://www.w3.org/Graphics/SVG/1.1/DTD/svg11.dtd"><svg t="1533390791989" class="icon" style="" viewBox="0 0 1024 1024" version="1.1" xmlns="http://www.w3.org/2000/svg" p-id="5262" xmlns:xlink="http://www.w3.org/1999/xlink" width="200" height="200"><defs><style type="text/css"></style></defs><path d="M527.4 165.6c12.4-12.1 26.6-22.1 42-29.5 15.3-7.4 31.8-12.3 49-14.4 6.4-0.7 12.2-1 17.7-1 11.8 0 23.1 1.5 34.4 4.6-8.5 19.8-19.6 32.7-29.6 42.8-12.6 12.2-26.8 22.1-42 29.4-15.6 7.4-32.1 12.2-49.1 14.3-6.4 0.7-12.2 1-17.8 1h-2.8c16 3.8 31.6 8.6 46.8 14.3 10.8-2.8 21.3-6.7 31.4-11.5 17.3-8.2 33.2-19.4 47.5-33.3 11.7-11.9 26.5-29 36.7-56.2 1.3-3.5 1.1-7.4-0.5-10.7-1.6-3.4-4.5-5.9-8.1-7.1-15.6-5.1-31-7.6-47.1-7.6-6.2 0-12.7 0.4-19.9 1.1-19.5 2.4-38.1 7.8-55.4 16.2-17.5 8.4-33.3 19.6-47.4 33.4-11.2 11.4-25.2 27.6-35.4 52.9 7 0.6 13.8 1.5 20.7 2.5 8.6-19.2 19.8-32 28.9-41.2z" fill="#48B959" p-id="5263"></path><path d="M549.8 211.8c17-2.1 33.5-6.9 49.1-14.3 15.3-7.3 29.4-17.2 42-29.4 9.9-10.1 21-23 29.6-42.8-11.3-3.1-22.7-4.6-34.4-4.6-5.5 0-11.3 0.3-17.7 1-17.2 2.1-33.7 6.9-49 14.4-15.5 7.5-29.6 17.4-42 29.5-9.1 9.2-20.3 22.1-28.9 41.3 10.4 1.5 20.7 3.5 30.9 5.9h2.8c5.4 0 11.2-0.4 17.6-1z" fill="#7EE288" p-id="5264"></path><path d="M576.1 227c-15.2-5.7-30.8-10.5-46.8-14.3-10.1-2.4-20.4-4.4-30.9-5.9-6.8-1-13.7-1.8-20.7-2.5-11.6-1.1-23.3-1.6-35.1-1.6-208.6 0-378.4 169.8-378.4 378.4 0 208.7 169.8 378.4 378.4 378.4 208.7 0 378.4-169.8 378.4-378.4 0.1-161.7-101.9-300-244.9-354.1zM442.6 939.6C245 939.6 84.2 778.8 84.2 581.1c0-197.6 160.8-358.4 358.4-358.4 197.6 0 358.4 160.8 358.4 358.4 0.1 197.7-160.7 358.5-358.4 358.5z" fill="#F9A050" p-id="5265"></path><path d="M442.6 222.7C245 222.7 84.2 383.5 84.2 581.1c0 197.6 160.8 358.4 358.4 358.4 197.6 0 358.4-160.8 358.4-358.4 0.1-197.6-160.7-358.4-358.4-358.4zM328.2 338.2c0 3.6-1.9 6.8-5 8.6-38.7 23-67.1 61.4-76.6 106.8-1 4.6-5 8-9.8 8-6.3 0-11.1-5.8-9.8-12 10.6-51 42.5-94.3 86-120 6.7-4 15.2 0.8 15.2 8.6z" fill="#F9B77A" p-id="5266"></path><path d="M313.1 329.6c-43.5 25.8-75.4 69-86 120-1.3 6.2 3.5 12 9.8 12 4.7 0 8.8-3.3 9.8-8 9.5-45.4 37.9-83.8 76.6-106.8 3.1-1.8 5-5.1 5-8.6v-0.1c-0.1-7.7-8.6-12.5-15.2-8.5z" fill="#FFFFFF" p-id="5267"></path></svg>