<?xml version="1.0" standalone="no"?><!DOCTYPE svg PUBLIC "-//W3C//DTD SVG 1.1//EN" "http://www.w3.org/Graphics/SVG/1.1/DTD/svg11.dtd"><svg t="1533390785058" class="icon" style="" viewBox="0 0 1024 1024" version="1.1" xmlns="http://www.w3.org/2000/svg" p-id="5140" xmlns:xlink="http://www.w3.org/1999/xlink" width="200" height="200"><defs><style type="text/css"></style></defs><path d="M588.6 406.2c17.1 0 30.9-13.8 30.9-30.9 0-17.1-13.8-30.9-30.9-30.9-17.1 0-30.9 13.8-30.9 30.9 0 17.1 13.8 30.9 30.9 30.9zM434.1 406.2c17.1 0 30.9-13.8 30.9-30.9 0-17.1-13.8-30.9-30.9-30.9-17.1 0-30.9 13.8-30.9 30.9 0 17.1 13.8 30.9 30.9 30.9z" fill="#B92A3A" p-id="5141"></path><path d="M766.3 696.7c-0.8-0.7-1.6-1.3-2.4-2l-1.5-1.2 3.9 3.2zM256.3 696.7l3.9-3.2-1.5 1.2c-0.8 0.7-1.6 1.4-2.4 2z" fill="" p-id="5142"></path><path d="M335.5 751c-5.3 6.7-10.9 13.1-17 19.2-34.1 34.1-77.6 55.3-124.7 61.3-2.4-3.1-6.1-5-10.3-5-7.2 0-13 5.8-13 13s5.8 13 13 13H185.2c67.2-5.3 126.5-39 165.9-88.9 0.8-1 1.3-2.1 1.7-3.2l-15.3-11.2c-0.7 0.4-1.4 1-2 1.8zM229.8 658.9c-47.6 7.7-95.3-0.6-136.9-23.4-0.1-3.9-2-7.6-5.4-10.1-5.8-4.2-14-2.9-18.2 2.9-4.2 5.8-2.9 14 2.9 18.2 0.1 0.1 0.2 0.2 0.4 0.2 0.3 0.3 0.7 0.5 1.1 0.8 57.6 35.1 125.3 42.5 186.5 25.1 1.5-0.4 2.8-1.2 3.9-2.1L254 653.6c-7.9 2.2-16 4-24.2 5.3zM251.5 554.8c-0.8 0-1.5-0.1-2.3-0.1-48.1-3.6-92.6-22.7-127.8-54.5 0.8-3.8-0.2-7.9-2.9-11.1-4.7-5.5-12.9-6.1-18.4-1.4-5.5 4.7-6.1 12.9-1.4 18.4l0.3 0.3c0.3 0.3 0.5 0.7 0.9 1 40.9 40.5 93.6 63.2 147.7 67.3 0.5-4.1 1.1-8.2 1.9-12.5l2-7.4zM670.8 756.4c-0.2 2.4 0.5 4.8 2.1 7 39.4 50 98.7 83.6 165.9 88.9H840.5c7.2 0 13-5.8 13-13s-5.8-13-13-13c-4.2 0-7.9 2-10.3 5-47.1-5.9-90.6-27.2-124.7-61.3-6.1-6.1-11.8-12.5-17-19.2-1.4-1.8-3.5-3.1-5.7-3.5l-1.5 1.2-10.5 7.9zM954.7 628.3c-4.2-5.8-12.4-7.1-18.2-2.9-3.4 2.4-5.2 6.2-5.4 10.1-41.6 22.8-89.3 31.1-136.9 23.4-8.5-1.4-16.9-3.2-25-5.5-1.5-0.4-3.1-0.5-4.7-0.2 0 0 0 0.1-0.1 0.1l-7.5 12.6c0.9 3 3.3 5.7 6.9 6.7 61.2 17.4 128.9 9.9 186.5-25.1 0.4-0.2 0.7-0.5 1.1-0.8 0.1-0.1 0.2-0.1 0.4-0.2 5.8-4.2 7.2-12.3 2.9-18.2zM770.7 575c56.1-2.9 111-25.7 153.3-67.6 0.3-0.3 0.6-0.6 0.9-1l0.3-0.3c4.7-5.5 4.1-13.7-1.4-18.4-5.5-4.7-13.7-4.1-18.4 1.4-2.7 3.2-3.6 7.3-2.9 11.1-35.2 31.8-79.7 50.9-127.8 54.5-2.6 0.2-5.2 0.3-7.8 0.4l1.8 7c0.8 4.4 1.5 8.7 2 12.9zM283 474.4c-43.7-17.9-73.7-54.9-73.7-97.5 0-25.1 10.4-48.2 27.8-66.6L226 293.1c-22.9 22.5-36.8 51.8-36.8 83.8 0 50.4 34.4 94.1 84.5 115.3l8.9-17.2c0.1-0.2 0.2-0.4 0.4-0.6zM833.5 376.9c0-33.3-15-63.6-39.5-86.5l-11 17.1c19 18.9 30.5 43 30.5 69.3 0 43.8-31.7 81.6-77.3 98.9l9.2 17.9c52.1-20.5 88.1-65.1 88.1-116.7z" fill="#B92A3A" p-id="5143"></path><path d="M764.6 653.2c4.7-10.3 7.3-20.2 7.3-29.3V593c0-5.7-0.4-11.8-1.2-18.1-0.5-4.2-1.2-8.5-2-12.8l-1.8-7-6.1-24c-3.2-9.9-7-20-11.4-29.7l-4-7.7-9.2-17.9-0.4-0.8c-22.4-37.9-53.3-67.3-87.5-67.3H370.1c-34 0-64.8 29.1-87.2 66.7-0.1 0.2-0.2 0.4-0.4 0.6l-8.9 17.2-4.7 9.2c-4.4 9.8-8.2 19.8-11.4 29.7l-6 23.7-1.9 7.3c-0.8 4.2-1.4 8.4-1.9 12.5-0.8 6.4-1.2 12.6-1.2 18.5V624c0 9.1 2.6 19 7.3 29.4l0.2 0.3 10.1 16.9 6.6 11.1c16.7 23 40.4 46.5 66.3 67l0.5 0.4 15.3 11.2 9.1 6.7c36.8 25.1 74.7 42.3 100.9 42.3h92.7c26.2 0 64.1-17.2 100.9-42.3l14.3-10.6 10.6-7.8 1.5-1.2c25.3-20.2 48.5-43.3 64.8-65.8l9.3-15.7 7.5-12.6c0.1 0 0.1 0 0.2-0.1zM751.8 624c0 5.6-1.8 12.5-5.1 20.2l-15.8 26.5c-14.8 20.3-36.7 42.3-61.7 62.1l-24.4 17.9c-35 23.9-69.3 38.7-89.3 38.7h-92.7c-20.1 0-54.3-14.8-89.3-38.7l-24.3-17.9c-25-19.9-46.9-41.9-61.7-62.1l-15.8-26.5c-3.3-7.7-5.1-14.6-5.1-20.2v-30.9c0-8 0.9-17 2.7-26.6l7.6-29.7c2.9-9 6.3-17.9 10.2-26.6l13.1-25.4c21.5-36.2 47-57 70-57h278.1c23 0 48.5 20.8 70 57l13.1 25.4c3.9 8.7 7.3 17.6 10.2 26.6l7.6 29.7c1.8 9.7 2.7 18.7 2.7 26.6V624z" fill="#B92A3A" p-id="5144"></path><path d="M749.2 566.4l-7.6-29.7c-2.9-9-6.4-17.9-10.2-26.6l-13.1-25.4c-21.5-36.2-47-57-70-57H370.1c-23 0-48.5 20.8-70 57L287 510.1c-3.9 8.7-7.3 17.6-10.2 26.6l-7.6 29.7c-1.8 9.7-2.7 18.7-2.7 26.6v31c0 5.6 1.8 12.5 5.1 20.2l15.8 26.5c14.8 20.3 36.7 42.3 61.7 62.1l24.3 17.9c35 23.9 69.3 38.7 89.3 38.7h92.7c20.1 0 54.3-14.8 89.3-38.7l24.4-17.9c25-19.9 46.9-41.9 61.7-62.1l15.8-26.5c3.4-7.7 5.1-14.6 5.1-20.2v-30.9c0.1-8-0.8-17-2.5-26.7z m-42.3 32.4c-3.9-0.9-7-4.1-7.6-8.1-5.5-33.9-21.8-65.2-45.9-89.1-7.2-7.1-0.5-19.2 9.3-16.9 1.8 0.4 3.4 1.3 4.7 2.6 27.2 26.9 45.4 61.9 51.6 100 1.3 7.2-5.1 13.2-12.1 11.5z" fill="#F75146" p-id="5145"></path><path d="M795.4 288.3c4.7-11.1 7.4-23.4 7.4-36.2 0-51.2-41.5-92.7-92.7-92.7-10.8 0-21.2 1.9-30.9 5.3v56.5h-56.5c-3.4 9.7-5.3 20.1-5.3 30.9 0 51.2 41.5 92.7 92.7 92.7 27.2 0 51.7-11.7 68.7-30.4l4.3-6.8 11-17.1 1.3-2.2z m-83.3 36.1c-40.1 0-72.7-32.6-72.7-72.7 0-3.7 0.3-7.3 0.8-10.9h61v-61c3.6-0.5 7.2-0.8 10.9-0.8 40.1 0 72.7 32.6 72.7 72.7 0 9.9-1.9 19.4-5.8 28.4l-4.8 11.3-8.3 9.1c-13.7 15.2-33.3 23.9-53.8 23.9zM239.7 314.3c17 18.7 41.4 30.4 68.6 30.4 51.2 0 92.7-41.5 92.7-92.7 0-10.8-1.9-21.2-5.3-30.9h-56.5v-56.5c-9.7-3.4-20.1-5.3-30.9-5.3-51.2 0-92.7 41.5-92.7 92.7 0 12.9 2.6 25.1 7.4 36.2l3.1 4.8 11.1 17.2 2.5 4.1z m-1.9-62.6c0-40.1 32.6-72.7 72.7-72.7 3.7 0 7.3 0.3 10.9 0.8v61h61c0.5 3.6 0.8 7.2 0.8 10.9 0 40.1-32.6 72.7-72.7 72.7-20.4 0-40.1-8.7-53.8-23.9l-8.3-9.1-4.8-11.3c-3.9-8.9-5.8-18.5-5.8-28.4z" fill="#B92A3A" p-id="5146"></path><path d="M774.3 291.4l4.8-11.3c3.8-9 5.8-18.5 5.8-28.4 0-40.1-32.6-72.7-72.7-72.7-3.7 0-7.3 0.3-10.9 0.8v61h-61c-0.5 3.6-0.8 7.2-0.8 10.9 0 40.1 32.6 72.7 72.7 72.7 20.5 0 40.1-8.7 53.8-23.9l8.3-9.1zM248.3 291.4l8.3 9.1c13.8 15.2 33.4 23.9 53.8 23.9 40.1 0 72.7-32.6 72.7-72.7 0-3.7-0.3-7.3-0.8-10.9h-61v-61c-3.6-0.5-7.2-0.8-10.9-0.8-40.1 0-72.7 32.6-72.7 72.7 0 9.9 1.9 19.4 5.8 28.4l4.8 11.3z" fill="#F75146" p-id="5147"></path><path d="M667.5 487.4c-1.3-1.3-3-2.2-4.7-2.6-9.8-2.3-16.5 9.8-9.3 16.9 24.2 23.9 40.4 55.2 45.9 89.1 0.6 4 3.7 7.1 7.6 8.1 6.9 1.6 13.3-4.3 12.2-11.4-6.2-38.2-24.5-73.2-51.7-100.1z" fill="#FFFFFF" p-id="5148"></path></svg>