<?xml version="1.0" standalone="no"?><!DOCTYPE svg PUBLIC "-//W3C//DTD SVG 1.1//EN" "http://www.w3.org/Graphics/SVG/1.1/DTD/svg11.dtd"><svg t="1532858446431" class="icon" style="" viewBox="0 0 1024 1024" version="1.1" xmlns="http://www.w3.org/2000/svg" p-id="1466" xmlns:xlink="http://www.w3.org/1999/xlink" width="200" height="200"><defs><style type="text/css"></style></defs><path d="M713.1 485.6c0-145.9-121.7-208.1-271.9-208.1s-271.9 62.2-271.9 208.1 87 264.2 271.9 264.2 271.9-118.2 271.9-264.2z" fill="#FF5A5A" p-id="1467"></path><path d="M713.1 485.6c0-91.2-47.6-149.7-119.9-180.7 8.8 38.3 47.9 103.5-55.9 265C461.2 688.4 337 716.5 287.7 713.3c40.4 23.2 91.5 36.6 153.6 36.6 184.8-0.1 271.8-118.3 271.8-264.3z" fill="#EF3C3C" p-id="1468"></path><path d="M556.6 299.2c-3.6-6.4-38.9-19.1-96.7-21.4 0.6-21.1 10.5-50.8 17-59 7.9-10-18.4-25.8-31.3-9.1-10.5 13.6-21.3 46.5-22 68.1-58.5 2.2-94.2 15.1-97.8 25-3.9 10.9 45.1 21.1 45.1 21.1s-45.1 27.2-35.2 41.1c9.9 13.9 70.3-9.1 70.3-9.1s23.9 55.6 35.2 55.6 35.2-55.6 35.2-55.6 65.5 18.1 70.3 9.1-35.2-41-35.2-41 49-17.7 45.1-24.8z" fill="#61B150" p-id="1469"></path><path d="M266 606.6c-2.9 0-5.8-1.4-7.5-4-33-49.5-34.4-120.8-21.2-169.5 1.3-4.8 6.2-7.6 11-6.3 4.8 1.3 7.6 6.3 6.3 11-12.2 44.8-11.1 110 18.8 154.8 2.8 4.1 1.6 9.7-2.5 12.5-1.4 1-3.2 1.5-4.9 1.5zM263.6 404.5c-1.8 0-3.6-0.5-5.2-1.6-4.1-2.9-5-8.5-2.2-12.5 1.3-1.8 2.5-3.5 3.9-5.1 3.2-3.8 8.8-4.4 12.7-1.2 3.8 3.2 4.4 8.8 1.2 12.7-1 1.2-2 2.5-3 3.9-1.8 2.4-4.6 3.8-7.4 3.8z" fill="#FFFFFF" p-id="1470"></path><path d="M556.6 299.2c-1.4-2.5-7.4-5.8-17.6-9.2-10-3.3-23.9-6.5-41.3-8.9-11.2-1.5-23.9-2.7-37.9-3.3 0.6-21.1 10.5-50.8 17-59 4.5-5.7-2-13.2-10.9-15.6-2.9-0.8-18.7 38-24.8 81.3-1.7 12 73.7 3.7 76.6 13.3 1.3 4.3-18 7.7-23.1 16-5.3 8.6 3.2 21.4 0 24.7-6.3 6.3-50.2-10.2-51.2-3-6.3 44-6.8 76.1-2.3 76.1 11.2 0 35.2-55.6 35.2-55.6s65.5 18.1 70.3 9.1-35.1-41.1-35.1-41.1 49-17.7 45.1-24.8z" fill="#559E43" p-id="1471"></path><path d="M983.7 570.4c0 127.2-124.3 230.2-251.5 230.2s-240.9-103-240.9-230.2c0-63.3 12.2-117.7 77.5-162.2s141.5-6.4 172.9-2c31.4 4.5 73.5-36.5 151-0.9s91 100.4 91 165.1z" fill="#F73746" p-id="1472"></path><path d="M771 731.7v-86.1s57.1-7.9 56.2-59.5c-0.9-51.7-56.2-47.4-56.2-47.4V441c21.4-6.3 49.1-13.4 88.5 4.7 60.9 28 71.5 78.8 71.5 129.7 0 87.4-74.8 160.4-160.5 177.3l0.5-21zM712.2 729.3v-78.2s-54.8-11.8-54.8-66.2c0-54.4 54.8-48 54.8-48V439c-29.4-8-70.5-16.2-107.2 8.9-51.3 35-60.9 77.8-60.9 127.5 0 92.8 77.1 169.3 168.1 179.7v-25.8z" fill="#FC9795" p-id="1473"></path><path d="M821.1 509.4l7.9-18.8" fill="#F84323" p-id="1474"></path><path d="M821.1 518.4c-1.2 0-2.3-0.2-3.5-0.7-4.6-1.9-6.7-7.2-4.8-11.8l7.9-18.7c1.9-4.6 7.2-6.7 11.8-4.8 4.6 1.9 6.7 7.2 4.8 11.8l-7.9 18.7c-1.4 3.4-4.8 5.5-8.3 5.5z" fill="#FFFFFF" p-id="1475"></path><path d="M850.7 547.4l23.6-12.1" fill="#F84323" p-id="1476"></path><path d="M850.8 556.4c-3.3 0-6.4-1.8-8-4.9-2.3-4.4-0.5-9.8 3.9-12.1l23.5-12.1c4.4-2.3 9.8-0.5 12.1 3.9 2.3 4.4 0.5 9.8-3.9 12.1l-23.5 12.1c-1.4 0.7-2.8 1-4.1 1z" fill="#FFFFFF" p-id="1477"></path><path d="M855.5 607.2l29 7.3" fill="#F84323" p-id="1478"></path><path d="M884.5 623.5c-0.7 0-1.5-0.1-2.2-0.3l-29-7.3c-4.8-1.2-7.8-6.1-6.5-10.9 1.2-4.8 6.1-7.8 10.9-6.5l29 7.3c4.8 1.2 7.8 6.1 6.5 10.9-1 4.1-4.7 6.8-8.7 6.8z" fill="#FFFFFF" p-id="1479"></path><path d="M831.2 650.8l12.4 20.5" fill="#F84323" p-id="1480"></path><path d="M843.6 680.3c-3.1 0-6-1.6-7.7-4.4l-12.4-20.5c-2.6-4.3-1.2-9.8 3.1-12.4 4.3-2.6 9.8-1.2 12.4 3.1l12.4 20.5c2.6 4.3 1.2 9.8-3.1 12.4-1.5 0.9-3.1 1.3-4.7 1.3z" fill="#FFFFFF" p-id="1481"></path><path d="M669.9 509.4l-13.4-25.9" fill="#F84323" p-id="1482"></path><path d="M669.9 518.4c-3.3 0-6.4-1.8-8-4.9l-13.4-25.9c-2.3-4.4-0.6-9.8 3.8-12.1 4.4-2.3 9.8-0.6 12.1 3.8l13.4 25.9c2.3 4.4 0.6 9.8-3.8 12.1-1.3 0.7-2.7 1.1-4.1 1.1z" fill="#FFFFFF" p-id="1483"></path><path d="M632.8 541L602 528.9" fill="#F84323" p-id="1484"></path><path d="M632.8 550c-1.1 0-2.2-0.2-3.3-0.6l-30.8-12.1c-4.6-1.8-6.9-7-5.1-11.7 1.8-4.6 7-6.9 11.7-5.1l30.8 12.1c4.6 1.8 6.9 7 5.1 11.7-1.4 3.5-4.8 5.7-8.4 5.7z" fill="#FFFFFF" p-id="1485"></path><path d="M625.8 593.4l-33.1 4.2" fill="#F84323" p-id="1486"></path><path d="M592.7 606.6c-4.5 0-8.3-3.3-8.9-7.9-0.6-4.9 2.9-9.4 7.8-10.1l33-4.2c4.9-0.6 9.4 2.9 10.1 7.8 0.6 4.9-2.9 9.4-7.8 10.1l-33 4.2c-0.4 0.1-0.8 0.1-1.2 0.1z" fill="#FFFFFF" p-id="1487"></path><path d="M641.2 641.7l-26.3 18.1" fill="#F84323" p-id="1488"></path><path d="M614.9 668.8c-2.9 0-5.7-1.4-7.4-3.9-2.8-4.1-1.8-9.7 2.3-12.5l26.3-18.1c4.1-2.8 9.7-1.8 12.5 2.3 2.8 4.1 1.8 9.7-2.3 12.5L620 667.2c-1.5 1.1-3.3 1.6-5.1 1.6z" fill="#FFFFFF" p-id="1489"></path></svg>